<svg width="391" height="397" viewBox="0 0 391 397" fill="none" xmlns="http://www.w3.org/2000/svg">
<path d="M2.79639 223.151L2.78231 218.555L7.57029 218.54C8.85028 218.536 9.79495 218.753 10.4043 219.191C11.0056 219.63 11.3078 220.341 11.3108 221.325C11.3139 222.309 11.016 223.022 10.4174 223.463C9.81074 223.905 8.86742 224.128 7.58742 224.132L2.79945 224.147L2.79834 223.787L7.58632 223.772C8.25032 223.77 8.81014 223.712 9.2658 223.599C9.71345 223.486 10.0569 223.316 10.2962 223.092C10.5356 222.867 10.7068 222.614 10.8099 222.334C10.9051 222.054 10.952 221.718 10.9508 221.326C10.9496 220.934 10.9006 220.598 10.8038 220.318C10.6989 220.038 10.5261 219.787 10.2854 219.564C10.0448 219.34 9.70024 219.174 9.2519 219.063C8.79555 218.952 8.23539 218.898 7.57139 218.9L3.14341 218.914L3.15639 223.15L2.79639 223.151ZM11.1754 216.303L4.21548 216.325L4.21438 215.965L10.5024 212.033L4.20239 212.053L4.20128 211.693L11.1613 211.671L11.1624 212.031L4.86237 215.963L11.1743 215.943L11.1754 216.303ZM8.55315 206.421L8.2417 206.602L7.85564 205.931C7.54995 205.38 7.06511 205.106 6.40111 205.108C5.16112 205.112 4.54402 206.057 4.5498 207.945L4.55318 209.049L13.5531 209.022L13.5542 209.382L4.19429 209.41L4.1898 207.947C4.18657 206.891 4.38013 206.094 4.77048 205.557C5.15284 205.02 5.69601 204.75 6.40001 204.748C7.20001 204.745 7.78903 205.079 8.16709 205.75L8.55315 206.421ZM10.7625 199.031L11.1225 199.03L11.1348 203.038L4.17482 203.059L4.17372 202.699L10.7737 202.679L10.7625 199.031ZM10.396 192.993C10.9494 193.432 11.2276 194.151 11.2306 195.151C11.2337 196.151 10.9519 196.868 10.3852 197.301C9.81853 197.735 8.9032 197.954 7.63921 197.958C6.37521 197.962 5.45855 197.748 4.88923 197.318C4.31991 196.888 4.03372 196.173 4.03065 195.173C4.0271 194.013 4.40468 193.224 5.1634 192.805L7.6324 195.738L7.63413 196.302L5.09284 193.273C4.62192 193.627 4.38786 194.26 4.39065 195.172C4.39188 195.572 4.43691 195.908 4.52574 196.179C4.60657 196.451 4.76335 196.703 4.99606 196.934C5.22074 197.157 5.55325 197.324 5.9936 197.435C6.42594 197.545 6.97411 197.6 7.6381 197.598C8.3021 197.596 8.85393 197.538 9.29358 197.425C9.72523 197.311 10.0567 197.142 10.288 196.918C10.5113 196.685 10.6665 196.432 10.7537 196.16C10.8329 195.888 10.8718 195.552 10.8706 195.152C10.8678 194.24 10.6299 193.609 10.1568 193.258L10.396 192.993ZM10.7362 190.438L10.7242 186.526L4.93575 189.004L11.0997 191.601L11.1009 191.985L4.01176 189.007L11.0825 185.985L11.0962 190.437L10.7362 190.438ZM3.96874 182.802C3.9657 181.81 4.18354 181.105 4.62226 180.688L4.887 180.927C4.51218 181.312 4.32604 181.921 4.32859 182.753C4.33242 184.001 4.83033 184.623 5.82232 184.62C6.20632 184.619 6.51385 184.466 6.74492 184.161C6.96799 183.856 7.13886 183.488 7.25753 183.056C7.37618 182.615 7.50285 182.179 7.63752 181.746C7.76417 181.306 7.97503 180.933 8.2701 180.628C8.55717 180.324 8.9367 180.17 9.4087 180.169C9.96069 180.167 10.4014 180.394 10.7308 180.849C11.0602 181.304 11.2262 181.963 11.2289 182.827C11.2302 183.251 11.1754 183.672 11.0647 184.088C10.954 184.496 10.7909 184.801 10.5755 185.001L10.3108 184.762C10.6855 184.353 10.8716 183.724 10.869 182.876C10.8666 182.1 10.7208 181.517 10.4316 181.126C10.1424 180.727 9.8058 180.528 9.4218 180.529C9.0218 180.53 8.69827 180.683 8.4512 180.988C8.20413 181.293 8.02128 181.665 7.90262 182.106C7.77595 182.538 7.64929 182.974 7.52264 183.415C7.38796 183.847 7.18109 184.216 6.90202 184.521C6.62295 184.826 6.25542 184.979 5.79942 184.98C5.18343 184.982 4.7268 184.779 4.42956 184.372C4.12428 183.957 3.97068 183.434 3.96874 182.802ZM10.3371 173.763C10.8904 174.201 11.1686 174.92 11.1717 175.92C11.1747 176.92 10.8929 177.637 10.3263 178.071C9.7596 178.505 8.84426 178.723 7.58027 178.727C6.31628 178.731 5.39962 178.518 4.8303 178.088C4.26098 177.657 3.97478 176.942 3.97172 175.942C3.96816 174.782 4.34575 173.993 5.10447 173.575L7.57347 176.507L7.57519 177.071L5.0339 174.043C4.56298 174.397 4.32892 175.029 4.33172 175.941C4.33294 176.341 4.37797 176.677 4.4668 176.949C4.54764 177.221 4.70441 177.472 4.93712 177.703C5.1618 177.927 5.49432 178.094 5.93466 178.204C6.367 178.315 6.91517 178.369 7.57917 178.367C8.24316 178.365 8.79499 178.308 9.23464 178.194C9.6663 178.081 9.99778 177.912 10.2291 177.687C10.4524 177.455 10.6076 177.202 10.6948 176.93C10.7739 176.658 10.8129 176.321 10.8117 175.921C10.8089 175.009 10.571 174.378 10.0979 174.028L10.3371 173.763ZM11.0392 171.842L4.07922 171.864L4.07811 171.504L10.3661 167.573L4.06613 167.592L4.06502 167.232L11.025 167.21L11.0261 167.57L4.72611 171.502L11.0381 171.482L11.0392 171.842ZM4.04424 160.45L4.40424 160.449L4.41196 162.969L11.0119 162.948L11.013 163.308L4.41306 163.329L4.42079 165.849L4.06079 165.85L4.04424 160.45Z" fill="black"/>
<path d="M382.238 171.431L382.555 171.26L382.92 171.942C383.209 172.502 383.686 172.791 384.349 172.809C385.589 172.842 386.234 171.916 386.285 170.028L386.315 168.925L377.318 168.681L377.328 168.322L386.685 168.575L386.645 170.038C386.617 171.094 386.399 171.884 385.993 172.409C385.594 172.935 385.043 173.188 384.34 173.169C383.54 173.147 382.961 172.795 382.604 172.114L382.238 171.431ZM379.807 178.752L379.447 178.742L379.556 174.736L386.513 174.924L386.503 175.284L379.906 175.105L379.807 178.752ZM379.992 184.798C379.452 184.343 379.195 183.616 379.223 182.616C379.25 181.617 379.553 180.908 380.132 180.492C380.712 180.075 381.633 179.884 382.897 179.918C384.16 179.953 385.07 180.193 385.626 180.641C386.182 181.088 386.447 181.811 386.42 182.811C386.389 183.97 385.987 184.748 385.216 185.143L382.837 182.138L382.852 181.574L385.301 184.677C385.782 184.338 386.035 183.713 386.06 182.801C386.071 182.401 386.036 182.064 385.955 181.79C385.883 181.516 385.734 181.26 385.508 181.021C385.29 180.791 384.963 180.615 384.526 180.491C384.097 180.367 383.551 180.296 382.887 180.278C382.223 180.26 381.67 180.301 381.227 180.402C380.792 180.502 380.456 180.661 380.218 180.878C379.988 181.104 379.825 181.352 379.73 181.622C379.642 181.891 379.593 182.226 379.582 182.626C379.558 183.538 379.777 184.176 380.239 184.54L379.992 184.798ZM379.575 187.342L379.469 191.252L385.33 188.95L379.247 186.168L379.257 185.784L386.253 188.975L379.095 191.782L379.215 187.332L379.575 187.342ZM386.11 195.178C386.083 196.17 385.844 196.868 385.393 197.272L385.135 197.024C385.522 196.651 385.726 196.048 385.748 195.216C385.782 193.969 385.303 193.332 384.312 193.305C383.928 193.294 383.616 193.438 383.376 193.736C383.143 194.034 382.962 194.397 382.83 194.825C382.698 195.262 382.558 195.694 382.411 196.123C382.271 196.559 382.049 196.925 381.745 197.221C381.449 197.517 381.065 197.659 380.593 197.646C380.041 197.631 379.607 197.391 379.292 196.927C378.976 196.462 378.83 195.798 378.854 194.934C378.865 194.51 378.932 194.092 379.055 193.679C379.178 193.274 379.351 192.975 379.572 192.781L379.829 193.028C379.442 193.425 379.238 194.048 379.215 194.896C379.194 195.671 379.322 196.259 379.599 196.659C379.876 197.066 380.207 197.275 380.591 197.286C380.99 197.297 381.318 197.153 381.575 196.856C381.831 196.559 382.025 196.192 382.157 195.756C382.296 195.327 382.436 194.895 382.576 194.458C382.723 194.03 382.941 193.668 383.229 193.372C383.517 193.075 383.889 192.933 384.345 192.946C384.961 192.962 385.411 193.179 385.696 193.594C385.989 194.018 386.127 194.546 386.11 195.178ZM379.472 204.021C378.932 203.566 378.676 202.839 378.703 201.84C378.73 200.84 379.033 200.132 379.613 199.715C380.192 199.299 381.114 199.108 382.377 199.142C383.641 199.176 384.55 199.417 385.107 199.864C385.663 200.311 385.927 201.035 385.9 202.034C385.869 203.194 385.468 203.971 384.697 204.367L382.317 201.361L382.332 200.797L384.781 203.901C385.263 203.562 385.516 202.936 385.54 202.024C385.551 201.625 385.516 201.288 385.436 201.013C385.363 200.739 385.214 200.483 384.988 200.245C384.77 200.015 384.443 199.838 384.006 199.714C383.577 199.591 383.031 199.52 382.367 199.502C381.704 199.484 381.15 199.525 380.707 199.625C380.273 199.725 379.936 199.884 379.698 200.102C379.468 200.328 379.305 200.575 379.21 200.845C379.123 201.115 379.074 201.449 379.063 201.849C379.038 202.761 379.257 203.399 379.719 203.764L379.472 204.021ZM378.713 205.92L385.67 206.108L385.66 206.468L379.257 210.208L385.555 210.378L385.545 210.738L378.587 210.55L378.597 210.19L385.013 206.45L378.703 206.279L378.713 205.92ZM385.362 217.518L385.002 217.508L385.07 214.989L378.472 214.81L378.482 214.451L385.08 214.629L385.148 212.11L385.508 212.12L385.362 217.518Z" fill="black"/>
<rect x="29" y="22" width="330" height="343" fill="#FDFDFD"/>
<circle cx="274.5" cy="107.5" r="64.5" fill="#D9D9D9"/>
<circle cx="113.5" cy="277.5" r="64.5" fill="#D9D9D9"/>
<circle cx="274.5" cy="277.5" r="64.5" fill="#D9D9D9"/>
<circle cx="113.5" cy="108.5" r="64.5" fill="#D9D9D9"/>
<path d="M182.14 385.268C181.708 384.7 181.492 383.784 181.492 382.52C181.492 381.256 181.708 380.34 182.14 379.772C182.572 379.204 183.288 378.92 184.288 378.92C185.288 378.92 186.008 379.196 186.448 379.748L186.184 379.988C185.832 379.516 185.2 379.28 184.288 379.28C183.888 379.28 183.552 379.324 183.28 379.412C183.008 379.492 182.756 379.648 182.524 379.88C182.3 380.104 182.132 380.436 182.02 380.876C181.908 381.308 181.852 381.856 181.852 382.52C181.852 383.184 181.908 383.736 182.02 384.176C182.132 384.608 182.3 384.94 182.524 385.172C182.756 385.396 183.008 385.552 183.28 385.64C183.552 385.72 183.888 385.76 184.288 385.76C185.2 385.76 185.832 385.524 186.184 385.052L186.448 385.292C186.008 385.844 185.288 386.12 184.288 386.12C183.288 386.12 182.572 385.836 182.14 385.268ZM188.874 385.64H192.786L190.326 379.844L187.71 386H187.326L190.326 378.92L193.326 386H188.874V385.64ZM198.703 385.64V386H194.695V379.04H195.055V385.64H198.703ZM201.213 385.64H205.845V379.544L203.145 382.244L200.445 379.544V386L200.085 385.988V379.04H200.445L203.145 381.74L205.845 379.04H206.205V386L201.213 385.988V385.64Z" fill="black"/>
<path d="M172.086 6.608H168.522L172.194 2.96H168.138V10.64H172.794V11H167.778V2.6H173.07L169.398 6.248H172.086V6.608ZM174.644 11V4.04H175.004L178.916 10.34V4.04H179.276V11H178.916L175.004 4.688V11H174.644ZM186.214 10.292C185.774 10.844 185.054 11.12 184.054 11.12C183.054 11.12 182.338 10.836 181.906 10.268C181.474 9.7 181.258 8.784 181.258 7.52C181.258 6.256 181.474 5.34 181.906 4.772C182.338 4.204 183.054 3.92 184.054 3.92C185.214 3.92 186.002 4.3 186.418 5.06L183.478 7.52H182.914L185.95 4.988C185.598 4.516 184.966 4.28 184.054 4.28C183.654 4.28 183.318 4.324 183.046 4.412C182.774 4.492 182.522 4.648 182.29 4.88C182.066 5.104 181.898 5.436 181.786 5.876C181.674 6.308 181.618 6.856 181.618 7.52C181.618 8.184 181.674 8.736 181.786 9.176C181.898 9.608 182.066 9.94 182.29 10.172C182.522 10.396 182.774 10.552 183.046 10.64C183.318 10.72 183.654 10.76 184.054 10.76C184.966 10.76 185.598 10.524 185.95 10.052L186.214 10.292ZM191.06 7.508L192.692 11H192.296L190.616 7.4C190.632 7.392 190.7 7.36 190.82 7.304C190.948 7.24 191.036 7.196 191.084 7.172C191.132 7.14 191.212 7.088 191.324 7.016C191.436 6.944 191.52 6.876 191.576 6.812C191.632 6.74 191.692 6.66 191.756 6.572C191.828 6.476 191.88 6.372 191.912 6.26C191.944 6.14 191.96 6.012 191.96 5.876C191.96 5.372 191.72 5 191.24 4.76C190.76 4.52 190.164 4.4 189.452 4.4H188.492V11H188.132V4.04H189.452C190.396 4.04 191.108 4.204 191.588 4.532C192.076 4.86 192.32 5.308 192.32 5.876C192.32 6.244 192.196 6.572 191.948 6.86C191.7 7.14 191.404 7.356 191.06 7.508ZM197.116 6.32L198.712 4.988C198.36 4.516 197.728 4.28 196.816 4.28C196.416 4.28 196.08 4.324 195.808 4.412C195.536 4.492 195.284 4.648 195.052 4.88C194.828 5.104 194.66 5.436 194.548 5.876C194.436 6.308 194.38 6.856 194.38 7.52C194.38 8.184 194.436 8.736 194.548 9.176C194.66 9.608 194.828 9.94 195.052 10.172C195.284 10.396 195.536 10.552 195.808 10.64C196.08 10.72 196.416 10.76 196.816 10.76C197.72 10.76 198.348 10.528 198.7 10.064V7.94H199.06V11.108C199.06 12.636 198.36 13.4 196.96 13.4H195.556V13.04H196.96C197.56 13.04 198 12.88 198.28 12.56C198.56 12.248 198.7 11.648 198.7 10.76V10.58C198.268 10.94 197.64 11.12 196.816 11.12C195.816 11.12 195.1 10.836 194.668 10.268C194.236 9.7 194.02 8.784 194.02 7.52C194.02 6.256 194.236 5.34 194.668 4.772C195.1 4.204 195.816 3.92 196.816 3.92C197.976 3.92 198.764 4.3 199.18 5.06L197.68 6.32H197.116ZM201.163 4.04H201.523V11H201.163V4.04ZM206.992 4.4H203.248V4.04H207.616L203.8 10.64H207.664V11H203.176L206.992 4.4ZM213.999 10.292C213.559 10.844 212.839 11.12 211.839 11.12C210.839 11.12 210.123 10.836 209.691 10.268C209.259 9.7 209.043 8.784 209.043 7.52C209.043 6.256 209.259 5.34 209.691 4.772C210.123 4.204 210.839 3.92 211.839 3.92C212.999 3.92 213.787 4.3 214.203 5.06L211.263 7.52H210.699L213.735 4.988C213.383 4.516 212.751 4.28 211.839 4.28C211.439 4.28 211.103 4.324 210.831 4.412C210.559 4.492 210.307 4.648 210.075 4.88C209.851 5.104 209.683 5.436 209.571 5.876C209.459 6.308 209.403 6.856 209.403 7.52C209.403 8.184 209.459 8.736 209.571 9.176C209.683 9.608 209.851 9.94 210.075 10.172C210.307 10.396 210.559 10.552 210.831 10.64C211.103 10.72 211.439 10.76 211.839 10.76C212.751 10.76 213.383 10.524 213.735 10.052L213.999 10.292ZM216.829 11H215.917V4.04H216.829C218.013 4.04 218.957 4.352 219.661 4.976C220.365 5.6 220.717 6.448 220.717 7.52C220.717 8.592 220.365 9.44 219.661 10.064C218.957 10.688 218.013 11 216.829 11ZM216.829 10.64C217.909 10.64 218.765 10.364 219.397 9.812C220.037 9.26 220.357 8.496 220.357 7.52C220.357 6.544 220.037 5.78 219.397 5.228C218.765 4.676 217.909 4.4 216.829 4.4H216.277V10.64H216.829Z" fill="black"/>
<path d="M77.8734 87.6V87.96H75.0534V96H74.6934V87.96H71.8734V87.6H77.8734ZM83.8526 95.292C83.4126 95.844 82.6926 96.12 81.6926 96.12C80.6926 96.12 79.9766 95.836 79.5446 95.268C79.1126 94.7 78.8966 93.784 78.8966 92.52C78.8966 91.256 79.1126 90.34 79.5446 89.772C79.9766 89.204 80.6926 88.92 81.6926 88.92C82.8526 88.92 83.6406 89.3 84.0566 90.06L81.1166 92.52H80.5526L83.5886 89.988C83.2366 89.516 82.6046 89.28 81.6926 89.28C81.2926 89.28 80.9566 89.324 80.6846 89.412C80.4126 89.492 80.1606 89.648 79.9286 89.88C79.7046 90.104 79.5366 90.436 79.4246 90.876C79.3126 91.308 79.2566 91.856 79.2566 92.52C79.2566 93.184 79.3126 93.736 79.4246 94.176C79.5366 94.608 79.7046 94.94 79.9286 95.172C80.1606 95.396 80.4126 95.552 80.6846 95.64C80.9566 95.72 81.2926 95.76 81.6926 95.76C82.6046 95.76 83.2366 95.524 83.5886 95.052L83.8526 95.292ZM85.7709 96V89.04H86.1309L90.0429 95.34V89.04H90.4029V96H90.0429L86.1309 89.688V96H85.7709ZM94.5209 88.896C95.5129 88.896 96.2169 89.116 96.6329 89.556L96.3929 89.82C96.0089 89.444 95.4009 89.256 94.5689 89.256C93.3209 89.256 92.6969 89.752 92.6969 90.744C92.6969 91.128 92.8489 91.436 93.1529 91.668C93.4569 91.892 93.8249 92.064 94.2569 92.184C94.6969 92.304 95.1329 92.432 95.5649 92.568C96.0049 92.696 96.3769 92.908 96.6809 93.204C96.9849 93.492 97.1369 93.872 97.1369 94.344C97.1369 94.896 96.9089 95.336 96.4529 95.664C95.9969 95.992 95.3369 96.156 94.4729 96.156C94.0489 96.156 93.6289 96.1 93.2129 95.988C92.8049 95.876 92.5009 95.712 92.3009 95.496L92.5409 95.232C92.9489 95.608 93.5769 95.796 94.4249 95.796C95.2009 95.796 95.7849 95.652 96.1769 95.364C96.5769 95.076 96.7769 94.74 96.7769 94.356C96.7769 93.956 96.6249 93.632 96.3209 93.384C96.0169 93.136 95.6449 92.952 95.2049 92.832C94.7729 92.704 94.3369 92.576 93.8969 92.448C93.4649 92.312 93.0969 92.104 92.7929 91.824C92.4889 91.544 92.3369 91.176 92.3369 90.72C92.3369 90.104 92.5409 89.648 92.9489 89.352C93.3649 89.048 93.8889 88.896 94.5209 88.896ZM103.54 95.292C103.1 95.844 102.38 96.12 101.38 96.12C100.38 96.12 99.6641 95.836 99.2321 95.268C98.8001 94.7 98.5841 93.784 98.5841 92.52C98.5841 91.256 98.8001 90.34 99.2321 89.772C99.6641 89.204 100.38 88.92 101.38 88.92C102.54 88.92 103.328 89.3 103.744 90.06L100.804 92.52H100.24L103.276 89.988C102.924 89.516 102.292 89.28 101.38 89.28C100.98 89.28 100.644 89.324 100.372 89.412C100.1 89.492 99.8481 89.648 99.6161 89.88C99.3921 90.104 99.2241 90.436 99.1121 90.876C99.0001 91.308 98.9441 91.856 98.9441 92.52C98.9441 93.184 99.0001 93.736 99.1121 94.176C99.2241 94.608 99.3921 94.94 99.6161 95.172C99.8481 95.396 100.1 95.552 100.372 95.64C100.644 95.72 100.98 95.76 101.38 95.76C102.292 95.76 102.924 95.524 103.276 95.052L103.54 95.292ZM105.314 93.18V92.82H107.69V93.18H105.314ZM109.829 96V89.04H110.189L114.101 95.34V89.04H114.461V96H114.101L110.189 89.688V96H109.829ZM121.4 95.292C120.96 95.844 120.24 96.12 119.24 96.12C118.24 96.12 117.524 95.836 117.092 95.268C116.66 94.7 116.444 93.784 116.444 92.52C116.444 91.256 116.66 90.34 117.092 89.772C117.524 89.204 118.24 88.92 119.24 88.92C120.4 88.92 121.188 89.3 121.604 90.06L118.664 92.52H118.1L121.136 89.988C120.784 89.516 120.152 89.28 119.24 89.28C118.84 89.28 118.504 89.324 118.232 89.412C117.96 89.492 117.708 89.648 117.476 89.88C117.252 90.104 117.084 90.436 116.972 90.876C116.86 91.308 116.804 91.856 116.804 92.52C116.804 93.184 116.86 93.736 116.972 94.176C117.084 94.608 117.252 94.94 117.476 95.172C117.708 95.396 117.96 95.552 118.232 95.64C118.504 95.72 118.84 95.76 119.24 95.76C120.152 95.76 120.784 95.524 121.136 95.052L121.4 95.292ZM126.246 92.508L127.878 96H127.482L125.802 92.4C125.818 92.392 125.886 92.36 126.006 92.304C126.134 92.24 126.222 92.196 126.27 92.172C126.318 92.14 126.398 92.088 126.51 92.016C126.622 91.944 126.706 91.876 126.762 91.812C126.818 91.74 126.878 91.66 126.942 91.572C127.014 91.476 127.066 91.372 127.098 91.26C127.13 91.14 127.146 91.012 127.146 90.876C127.146 90.372 126.906 90 126.426 89.76C125.946 89.52 125.35 89.4 124.638 89.4H123.678V96H123.318V89.04H124.638C125.582 89.04 126.294 89.204 126.774 89.532C127.262 89.86 127.506 90.308 127.506 90.876C127.506 91.244 127.382 91.572 127.134 91.86C126.886 92.14 126.59 92.356 126.246 92.508ZM134.581 89.04L131.581 96.12L128.581 89.04H128.965L131.581 95.196L134.197 89.04H134.581ZM139.443 89.412C139.171 89.324 138.835 89.28 138.435 89.28C138.035 89.28 137.699 89.324 137.427 89.412C137.155 89.492 136.903 89.648 136.671 89.88C136.447 90.104 136.279 90.436 136.167 90.876C136.055 91.308 135.999 91.856 135.999 92.52C135.999 93.184 136.055 93.736 136.167 94.176C136.279 94.608 136.447 94.94 136.671 95.172C136.903 95.396 137.155 95.552 137.427 95.64C137.699 95.72 138.035 95.76 138.435 95.76C138.835 95.76 139.171 95.72 139.443 95.64C139.715 95.552 139.963 95.396 140.187 95.172C140.419 94.94 140.591 94.608 140.703 94.176C140.815 93.736 140.871 93.184 140.871 92.52C140.871 91.856 140.815 91.308 140.703 90.876C140.591 90.436 140.419 90.104 140.187 89.88C139.963 89.648 139.715 89.492 139.443 89.412ZM140.583 95.268C140.151 95.836 139.435 96.12 138.435 96.12C137.435 96.12 136.719 95.836 136.287 95.268C135.855 94.7 135.639 93.784 135.639 92.52C135.639 91.256 135.855 90.34 136.287 89.772C136.719 89.204 137.435 88.92 138.435 88.92C139.435 88.92 140.151 89.204 140.583 89.772C141.015 90.34 141.231 91.256 141.231 92.52C141.231 93.784 141.015 94.7 140.583 95.268ZM143.456 89.04V92.52C143.456 93.712 143.644 94.552 144.02 95.04C144.404 95.52 144.928 95.76 145.592 95.76C146.256 95.76 146.776 95.52 147.152 95.04C147.536 94.552 147.728 93.712 147.728 92.52V89.04H148.088V92.52C148.088 94.92 147.256 96.12 145.592 96.12C143.928 96.12 143.096 94.92 143.096 92.52V89.04H143.456ZM152.083 88.896C153.075 88.896 153.779 89.116 154.195 89.556L153.955 89.82C153.571 89.444 152.963 89.256 152.131 89.256C150.883 89.256 150.259 89.752 150.259 90.744C150.259 91.128 150.411 91.436 150.715 91.668C151.019 91.892 151.387 92.064 151.819 92.184C152.259 92.304 152.695 92.432 153.127 92.568C153.567 92.696 153.939 92.908 154.243 93.204C154.547 93.492 154.699 93.872 154.699 94.344C154.699 94.896 154.471 95.336 154.015 95.664C153.559 95.992 152.899 96.156 152.035 96.156C151.611 96.156 151.191 96.1 150.775 95.988C150.367 95.876 150.063 95.712 149.863 95.496L150.103 95.232C150.511 95.608 151.139 95.796 151.987 95.796C152.763 95.796 153.347 95.652 153.739 95.364C154.139 95.076 154.339 94.74 154.339 94.356C154.339 93.956 154.187 93.632 153.883 93.384C153.579 93.136 153.207 92.952 152.767 92.832C152.335 92.704 151.899 92.576 151.459 92.448C151.027 92.312 150.659 92.104 150.355 91.824C150.051 91.544 149.899 91.176 149.899 90.72C149.899 90.104 150.103 89.648 150.511 89.352C150.927 89.048 151.451 88.896 152.083 88.896Z" fill="black"/>
<path d="M87.9154 120.04H88.2754V127H87.9154V120.04ZM93.4801 123.508L95.1121 127H94.7161L93.0361 123.4C93.0521 123.392 93.1201 123.36 93.2401 123.304C93.3681 123.24 93.4561 123.196 93.5041 123.172C93.5521 123.14 93.6321 123.088 93.7441 123.016C93.8561 122.944 93.9401 122.876 93.9961 122.812C94.0521 122.74 94.1121 122.66 94.1761 122.572C94.2481 122.476 94.3001 122.372 94.3321 122.26C94.3641 122.14 94.3801 122.012 94.3801 121.876C94.3801 121.372 94.1401 121 93.6601 120.76C93.1801 120.52 92.5841 120.4 91.8721 120.4H90.9121V127H90.5521V120.04H91.8721C92.8161 120.04 93.5281 120.204 94.0081 120.532C94.4961 120.86 94.7401 121.308 94.7401 121.876C94.7401 122.244 94.6161 122.572 94.3681 122.86C94.1201 123.14 93.8241 123.356 93.4801 123.508ZM99.6676 123.508L101.3 127H100.904L99.2236 123.4C99.2396 123.392 99.3076 123.36 99.4276 123.304C99.5556 123.24 99.6436 123.196 99.6916 123.172C99.7396 123.14 99.8196 123.088 99.9316 123.016C100.044 122.944 100.128 122.876 100.184 122.812C100.24 122.74 100.3 122.66 100.364 122.572C100.436 122.476 100.488 122.372 100.52 122.26C100.552 122.14 100.568 122.012 100.568 121.876C100.568 121.372 100.328 121 99.8476 120.76C99.3676 120.52 98.7716 120.4 98.0596 120.4H97.0996V127H96.7396V120.04H98.0596C99.0036 120.04 99.7156 120.204 100.196 120.532C100.684 120.86 100.928 121.308 100.928 121.876C100.928 122.244 100.804 122.572 100.556 122.86C100.308 123.14 100.012 123.356 99.6676 123.508ZM102.927 120.04H103.287V127H102.927V120.04ZM110.064 120.04V120.4H107.544V127H107.184V120.4H104.664V120.04H110.064ZM112.083 126.64H115.995L113.535 120.844L110.919 127H110.535L113.535 119.92L116.535 127H112.083V126.64ZM122.404 120.04V120.4H119.884V127H119.524V120.4H117.004V120.04H122.404ZM128.442 126.292C128.002 126.844 127.282 127.12 126.282 127.12C125.282 127.12 124.566 126.836 124.134 126.268C123.702 125.7 123.486 124.784 123.486 123.52C123.486 122.256 123.702 121.34 124.134 120.772C124.566 120.204 125.282 119.92 126.282 119.92C127.442 119.92 128.23 120.3 128.646 121.06L125.706 123.52H125.142L128.178 120.988C127.826 120.516 127.194 120.28 126.282 120.28C125.882 120.28 125.546 120.324 125.274 120.412C125.002 120.492 124.75 120.648 124.518 120.88C124.294 121.104 124.126 121.436 124.014 121.876C123.902 122.308 123.846 122.856 123.846 123.52C123.846 124.184 123.902 124.736 124.014 125.176C124.126 125.608 124.294 125.94 124.518 126.172C124.75 126.396 125.002 126.552 125.274 126.64C125.546 126.72 125.882 126.76 126.282 126.76C127.194 126.76 127.826 126.524 128.178 126.052L128.442 126.292ZM131.273 127H130.361V120.04H131.273C132.457 120.04 133.401 120.352 134.105 120.976C134.809 121.6 135.161 122.448 135.161 123.52C135.161 124.592 134.809 125.44 134.105 126.064C133.401 126.688 132.457 127 131.273 127ZM131.273 126.64C132.353 126.64 133.209 126.364 133.841 125.812C134.481 125.26 134.801 124.496 134.801 123.52C134.801 122.544 134.481 121.78 133.841 121.228C133.209 120.676 132.353 120.4 131.273 120.4H130.721V126.64H131.273ZM136.85 124.18V123.82H139.226V124.18H136.85ZM91.6862 140.64H95.5982L93.1382 134.844L90.5222 141H90.1382L93.1382 133.92L96.1382 141H91.6862V140.64ZM97.5072 141V134.04H97.8672L101.779 140.34V134.04H102.139V141H101.779L97.8672 134.688V141H97.5072ZM104.421 141V134.04H104.781L108.693 140.34V134.04H109.053V141H108.693L104.781 134.688V141H104.421ZM114.839 134.412C114.567 134.324 114.231 134.28 113.831 134.28C113.431 134.28 113.095 134.324 112.823 134.412C112.551 134.492 112.299 134.648 112.067 134.88C111.843 135.104 111.675 135.436 111.563 135.876C111.451 136.308 111.395 136.856 111.395 137.52C111.395 138.184 111.451 138.736 111.563 139.176C111.675 139.608 111.843 139.94 112.067 140.172C112.299 140.396 112.551 140.552 112.823 140.64C113.095 140.72 113.431 140.76 113.831 140.76C114.231 140.76 114.567 140.72 114.839 140.64C115.111 140.552 115.359 140.396 115.583 140.172C115.815 139.94 115.987 139.608 116.099 139.176C116.211 138.736 116.267 138.184 116.267 137.52C116.267 136.856 116.211 136.308 116.099 135.876C115.987 135.436 115.815 135.104 115.583 134.88C115.359 134.648 115.111 134.492 114.839 134.412ZM115.979 140.268C115.547 140.836 114.831 141.12 113.831 141.12C112.831 141.12 112.115 140.836 111.683 140.268C111.251 139.7 111.035 138.784 111.035 137.52C111.035 136.256 111.251 135.34 111.683 134.772C112.115 134.204 112.831 133.92 113.831 133.92C114.831 133.92 115.547 134.204 115.979 134.772C116.411 135.34 116.627 136.256 116.627 137.52C116.627 138.784 116.411 139.7 115.979 140.268ZM119.033 134.04H123.677L120.857 140.7V143.4H120.497V140.7L117.677 134.04H118.061L120.677 140.196L123.137 134.4H119.033V134.04ZM129.679 140.292C129.239 140.844 128.519 141.12 127.519 141.12C126.519 141.12 125.803 140.836 125.371 140.268C124.939 139.7 124.723 138.784 124.723 137.52C124.723 136.256 124.939 135.34 125.371 134.772C125.803 134.204 126.519 133.92 127.519 133.92C128.679 133.92 129.467 134.3 129.883 135.06L126.943 137.52H126.379L129.415 134.988C129.063 134.516 128.431 134.28 127.519 134.28C127.119 134.28 126.783 134.324 126.511 134.412C126.239 134.492 125.987 134.648 125.755 134.88C125.531 135.104 125.363 135.436 125.251 135.876C125.139 136.308 125.083 136.856 125.083 137.52C125.083 138.184 125.139 138.736 125.251 139.176C125.363 139.608 125.531 139.94 125.755 140.172C125.987 140.396 126.239 140.552 126.511 140.64C126.783 140.72 127.119 140.76 127.519 140.76C128.431 140.76 129.063 140.524 129.415 140.052L129.679 140.292ZM132.509 141H131.597V134.04H132.509C133.693 134.04 134.637 134.352 135.341 134.976C136.045 135.6 136.397 136.448 136.397 137.52C136.397 138.592 136.045 139.44 135.341 140.064C134.637 140.688 133.693 141 132.509 141ZM132.509 140.64C133.589 140.64 134.445 140.364 135.077 139.812C135.717 139.26 136.037 138.496 136.037 137.52C136.037 136.544 135.717 135.78 135.077 135.228C134.445 134.676 133.589 134.4 132.509 134.4H131.957V140.64H132.509Z" fill="black"/>
<path d="M243.101 91.608H239.537L243.209 87.96H239.153V95.64H243.809V96H238.793V87.6H244.085L240.413 91.248H243.101V91.608ZM247.484 92.244L249.644 96H249.224L247.268 92.616L245.312 96H244.892L247.052 92.244L245.204 89.04H245.624L247.268 91.884L248.912 89.04H249.332L247.484 92.244ZM251.504 95.268C251.072 94.7 250.856 93.784 250.856 92.52C250.856 91.256 251.072 90.34 251.504 89.772C251.936 89.204 252.652 88.92 253.652 88.92C254.652 88.92 255.372 89.196 255.812 89.748L255.548 89.988C255.196 89.516 254.564 89.28 253.652 89.28C253.252 89.28 252.916 89.324 252.644 89.412C252.372 89.492 252.12 89.648 251.888 89.88C251.664 90.104 251.496 90.436 251.384 90.876C251.272 91.308 251.216 91.856 251.216 92.52C251.216 93.184 251.272 93.736 251.384 94.176C251.496 94.608 251.664 94.94 251.888 95.172C252.12 95.396 252.372 95.552 252.644 95.64C252.916 95.72 253.252 95.76 253.652 95.76C254.564 95.76 255.196 95.524 255.548 95.052L255.812 95.292C255.372 95.844 254.652 96.12 253.652 96.12C252.652 96.12 251.936 95.836 251.504 95.268ZM257.601 89.04H257.961V96H257.601V89.04ZM264.738 89.04V89.4H262.218V96H261.858V89.4H259.338V89.04H264.738ZM270.776 95.292C270.336 95.844 269.616 96.12 268.616 96.12C267.616 96.12 266.9 95.836 266.468 95.268C266.036 94.7 265.82 93.784 265.82 92.52C265.82 91.256 266.036 90.34 266.468 89.772C266.9 89.204 267.616 88.92 268.616 88.92C269.776 88.92 270.564 89.3 270.98 90.06L268.04 92.52H267.476L270.512 89.988C270.16 89.516 269.528 89.28 268.616 89.28C268.216 89.28 267.88 89.324 267.608 89.412C267.336 89.492 267.084 89.648 266.852 89.88C266.628 90.104 266.46 90.436 266.348 90.876C266.236 91.308 266.18 91.856 266.18 92.52C266.18 93.184 266.236 93.736 266.348 94.176C266.46 94.608 266.628 94.94 266.852 95.172C267.084 95.396 267.336 95.552 267.608 95.64C267.88 95.72 268.216 95.76 268.616 95.76C269.528 95.76 270.16 95.524 270.512 95.052L270.776 95.292ZM273.607 96H272.695V89.04H273.607C274.791 89.04 275.735 89.352 276.439 89.976C277.143 90.6 277.495 91.448 277.495 92.52C277.495 93.592 277.143 94.44 276.439 95.064C275.735 95.688 274.791 96 273.607 96ZM273.607 95.64C274.687 95.64 275.543 95.364 276.175 94.812C276.815 94.26 277.135 93.496 277.135 92.52C277.135 91.544 276.815 90.78 276.175 90.228C275.543 89.676 274.687 89.4 273.607 89.4H273.055V95.64H273.607ZM279.184 93.18V92.82H281.56V93.18H279.184ZM287.707 95.64V96H283.699V89.04H284.059V95.64H287.707ZM289.089 89.04H289.449V96H289.089V89.04ZM296.802 89.04L293.802 96.12L290.802 89.04H291.186L293.802 95.196L296.418 89.04H296.802ZM302.816 95.292C302.376 95.844 301.656 96.12 300.656 96.12C299.656 96.12 298.94 95.836 298.508 95.268C298.076 94.7 297.86 93.784 297.86 92.52C297.86 91.256 298.076 90.34 298.508 89.772C298.94 89.204 299.656 88.92 300.656 88.92C301.816 88.92 302.604 89.3 303.02 90.06L300.08 92.52H299.516L302.552 89.988C302.2 89.516 301.568 89.28 300.656 89.28C300.256 89.28 299.92 89.324 299.648 89.412C299.376 89.492 299.124 89.648 298.892 89.88C298.668 90.104 298.5 90.436 298.388 90.876C298.276 91.308 298.22 91.856 298.22 92.52C298.22 93.184 298.276 93.736 298.388 94.176C298.5 94.608 298.668 94.94 298.892 95.172C299.124 95.396 299.376 95.552 299.648 95.64C299.92 95.72 300.256 95.76 300.656 95.76C301.568 95.76 302.2 95.524 302.552 95.052L302.816 95.292ZM308.742 95.64V96H304.734V89.04H305.094V95.64H308.742ZM310.544 89.04H315.188L312.368 95.7V98.4H312.008V95.7L309.188 89.04H309.572L312.188 95.196L314.648 89.4H310.544V89.04Z" fill="black"/>
<path d="M249.957 126.268C249.525 125.7 249.309 124.784 249.309 123.52C249.309 122.256 249.525 121.34 249.957 120.772C250.389 120.204 251.105 119.92 252.105 119.92C253.105 119.92 253.825 120.196 254.265 120.748L254.001 120.988C253.649 120.516 253.017 120.28 252.105 120.28C251.705 120.28 251.369 120.324 251.097 120.412C250.825 120.492 250.573 120.648 250.341 120.88C250.117 121.104 249.949 121.436 249.837 121.876C249.725 122.308 249.669 122.856 249.669 123.52C249.669 124.184 249.725 124.736 249.837 125.176C249.949 125.608 250.117 125.94 250.341 126.172C250.573 126.396 250.825 126.552 251.097 126.64C251.369 126.72 251.705 126.76 252.105 126.76C253.017 126.76 253.649 126.524 254.001 126.052L254.265 126.292C253.825 126.844 253.105 127.12 252.105 127.12C251.105 127.12 250.389 126.836 249.957 126.268ZM260.374 127H260.014V123.52H256.414V127H256.054V120.04H256.414V123.16H260.014V120.04H260.374V127ZM267.308 126.292C266.868 126.844 266.148 127.12 265.148 127.12C264.148 127.12 263.432 126.836 263 126.268C262.568 125.7 262.352 124.784 262.352 123.52C262.352 122.256 262.568 121.34 263 120.772C263.432 120.204 264.148 119.92 265.148 119.92C266.308 119.92 267.096 120.3 267.512 121.06L264.572 123.52H264.008L267.044 120.988C266.692 120.516 266.06 120.28 265.148 120.28C264.748 120.28 264.412 120.324 264.14 120.412C263.868 120.492 263.616 120.648 263.384 120.88C263.16 121.104 262.992 121.436 262.88 121.876C262.768 122.308 262.712 122.856 262.712 123.52C262.712 124.184 262.768 124.736 262.88 125.176C262.992 125.608 263.16 125.94 263.384 126.172C263.616 126.396 263.868 126.552 264.14 126.64C264.412 126.72 264.748 126.76 265.148 126.76C266.06 126.76 266.692 126.524 267.044 126.052L267.308 126.292ZM273.882 126.292C273.442 126.844 272.722 127.12 271.722 127.12C270.722 127.12 270.006 126.836 269.574 126.268C269.142 125.7 268.926 124.784 268.926 123.52C268.926 122.256 269.142 121.34 269.574 120.772C270.006 120.204 270.722 119.92 271.722 119.92C272.882 119.92 273.67 120.3 274.086 121.06L271.146 123.52H270.582L273.618 120.988C273.266 120.516 272.634 120.28 271.722 120.28C271.322 120.28 270.986 120.324 270.714 120.412C270.442 120.492 270.19 120.648 269.958 120.88C269.734 121.104 269.566 121.436 269.454 121.876C269.342 122.308 269.286 122.856 269.286 123.52C269.286 124.184 269.342 124.736 269.454 125.176C269.566 125.608 269.734 125.94 269.958 126.172C270.19 126.396 270.442 126.552 270.714 126.64C270.986 126.72 271.322 126.76 271.722 126.76C272.634 126.76 273.266 126.524 273.618 126.052L273.882 126.292ZM278.728 123.508L280.36 127H279.964L278.284 123.4C278.3 123.392 278.368 123.36 278.488 123.304C278.616 123.24 278.704 123.196 278.752 123.172C278.8 123.14 278.88 123.088 278.992 123.016C279.104 122.944 279.188 122.876 279.244 122.812C279.3 122.74 279.36 122.66 279.424 122.572C279.496 122.476 279.548 122.372 279.58 122.26C279.612 122.14 279.628 122.012 279.628 121.876C279.628 121.372 279.388 121 278.908 120.76C278.428 120.52 277.832 120.4 277.12 120.4H276.16V127H275.8V120.04H277.12C278.064 120.04 278.776 120.204 279.256 120.532C279.744 120.86 279.988 121.308 279.988 121.876C279.988 122.244 279.864 122.572 279.616 122.86C279.368 123.14 279.072 123.356 278.728 123.508ZM281.868 127V123.52C281.868 122.256 282.084 121.34 282.516 120.772C282.956 120.204 283.672 119.92 284.664 119.92C285.824 119.92 286.612 120.3 287.028 121.06L284.52 123.16H287.076V123.52H283.524L286.56 120.988C286.208 120.516 285.576 120.28 284.664 120.28C284.264 120.28 283.928 120.324 283.656 120.412C283.384 120.492 283.132 120.648 282.9 120.88C282.676 121.104 282.508 121.436 282.396 121.876C282.284 122.308 282.228 122.856 282.228 123.52V127H281.868ZM289.118 120.04V123.52C289.118 124.712 289.306 125.552 289.682 126.04C290.066 126.52 290.59 126.76 291.254 126.76C291.918 126.76 292.438 126.52 292.814 126.04C293.198 125.552 293.39 124.712 293.39 123.52V120.04H293.75V123.52C293.75 125.92 292.918 127.12 291.254 127.12C289.59 127.12 288.758 125.92 288.758 123.52V120.04H289.118ZM299.918 126.64V127H295.91V120.04H296.27V126.64H299.918ZM301.156 124.18V123.82H303.532V124.18H301.156ZM265.876 141H265.516V137.52H261.916V141H261.556V134.04H261.916V137.16H265.516V134.04H265.876V141ZM268.79 140.64H272.702L270.242 134.844L267.626 141H267.242L270.242 133.92L273.242 141H268.79V140.64ZM277.587 138.408L277.407 138.096L278.079 137.712C278.631 137.408 278.907 136.924 278.907 136.26C278.907 135.02 277.963 134.4 276.075 134.4H274.971V143.4H274.611V134.04H276.075C277.131 134.04 277.927 134.236 278.463 134.628C278.999 135.012 279.267 135.556 279.267 136.26C279.267 137.06 278.931 137.648 278.259 138.024L277.587 138.408ZM283.938 138.408L283.758 138.096L284.43 137.712C284.982 137.408 285.258 136.924 285.258 136.26C285.258 135.02 284.314 134.4 282.426 134.4H281.322V143.4H280.962V134.04H282.426C283.482 134.04 284.278 134.236 284.814 134.628C285.35 135.012 285.618 135.556 285.618 136.26C285.618 137.06 285.282 137.648 284.61 138.024L283.938 138.408ZM287.734 134.04H292.378L289.558 140.7V143.4H289.198V140.7L286.378 134.04H286.762L289.378 140.196L291.838 134.4H287.734V134.04Z" fill="black"/>
<path d="M79.776 259H77.856V250.6H79.32C80.376 250.6 81.172 250.796 81.708 251.188C82.244 251.572 82.512 252.116 82.512 252.82C82.512 253.62 82.176 254.208 81.504 254.584C82.48 254.952 82.968 255.644 82.968 256.66C82.968 257.38 82.704 257.952 82.176 258.376C81.648 258.792 80.848 259 79.776 259ZM79.776 258.64C80.152 258.64 80.496 258.612 80.808 258.556C81.12 258.492 81.416 258.392 81.696 258.256C81.984 258.112 82.208 257.904 82.368 257.632C82.528 257.36 82.608 257.036 82.608 256.66C82.608 255.804 82.196 255.224 81.372 254.92L80.652 254.656L81.324 254.272C81.876 253.968 82.152 253.484 82.152 252.82C82.152 251.58 81.208 250.96 79.32 250.96H78.216V258.64H79.776ZM88.2612 252.412C87.9892 252.324 87.6532 252.28 87.2532 252.28C86.8532 252.28 86.5172 252.324 86.2452 252.412C85.9732 252.492 85.7212 252.648 85.4892 252.88C85.2652 253.104 85.0972 253.436 84.9852 253.876C84.8732 254.308 84.8172 254.856 84.8172 255.52C84.8172 256.184 84.8732 256.736 84.9852 257.176C85.0972 257.608 85.2652 257.94 85.4892 258.172C85.7212 258.396 85.9732 258.552 86.2452 258.64C86.5172 258.72 86.8532 258.76 87.2532 258.76C87.6532 258.76 87.9892 258.72 88.2612 258.64C88.5332 258.552 88.7812 258.396 89.0052 258.172C89.2372 257.94 89.4092 257.608 89.5212 257.176C89.6332 256.736 89.6892 256.184 89.6892 255.52C89.6892 254.856 89.6332 254.308 89.5212 253.876C89.4092 253.436 89.2372 253.104 89.0052 252.88C88.7812 252.648 88.5332 252.492 88.2612 252.412ZM89.4012 258.268C88.9692 258.836 88.2532 259.12 87.2532 259.12C86.2532 259.12 85.5372 258.836 85.1052 258.268C84.6732 257.7 84.4572 256.784 84.4572 255.52C84.4572 254.256 84.6732 253.34 85.1052 252.772C85.5372 252.204 86.2532 251.92 87.2532 251.92C88.2532 251.92 88.9692 252.204 89.4012 252.772C89.8332 253.34 90.0492 254.256 90.0492 255.52C90.0492 256.784 89.8332 257.7 89.4012 258.268ZM94.9625 255.508L96.5945 259H96.1985L94.5185 255.4C94.5345 255.392 94.6025 255.36 94.7225 255.304C94.8505 255.24 94.9385 255.196 94.9865 255.172C95.0345 255.14 95.1145 255.088 95.2265 255.016C95.3385 254.944 95.4225 254.876 95.4785 254.812C95.5345 254.74 95.5945 254.66 95.6585 254.572C95.7305 254.476 95.7825 254.372 95.8145 254.26C95.8465 254.14 95.8625 254.012 95.8625 253.876C95.8625 253.372 95.6225 253 95.1425 252.76C94.6625 252.52 94.0665 252.4 93.3545 252.4H92.3945V259H92.0345V252.04H93.3545C94.2985 252.04 95.0105 252.204 95.4905 252.532C95.9785 252.86 96.2225 253.308 96.2225 253.876C96.2225 254.244 96.0985 254.572 95.8505 254.86C95.6025 255.14 95.3065 255.356 94.9625 255.508ZM102.878 258.292C102.438 258.844 101.718 259.12 100.718 259.12C99.718 259.12 99.002 258.836 98.57 258.268C98.138 257.7 97.922 256.784 97.922 255.52C97.922 254.256 98.138 253.34 98.57 252.772C99.002 252.204 99.718 251.92 100.718 251.92C101.878 251.92 102.666 252.3 103.082 253.06L100.142 255.52H99.578L102.614 252.988C102.262 252.516 101.63 252.28 100.718 252.28C100.318 252.28 99.982 252.324 99.71 252.412C99.438 252.492 99.186 252.648 98.954 252.88C98.73 253.104 98.562 253.436 98.45 253.876C98.338 254.308 98.282 254.856 98.282 255.52C98.282 256.184 98.338 256.736 98.45 257.176C98.562 257.608 98.73 257.94 98.954 258.172C99.186 258.396 99.438 258.552 99.71 258.64C99.982 258.72 100.318 258.76 100.718 258.76C101.63 258.76 102.262 258.524 102.614 258.052L102.878 258.292ZM105.708 259H104.796V252.04H105.708C106.892 252.04 107.836 252.352 108.54 252.976C109.244 253.6 109.596 254.448 109.596 255.52C109.596 256.592 109.244 257.44 108.54 258.064C107.836 258.688 106.892 259 105.708 259ZM105.708 258.64C106.788 258.64 107.644 258.364 108.276 257.812C108.916 257.26 109.236 256.496 109.236 255.52C109.236 254.544 108.916 253.78 108.276 253.228C107.644 252.676 106.788 252.4 105.708 252.4H105.156V258.64H105.708ZM111.285 256.18V255.82H113.661V256.18H111.285ZM115.26 252.04L117.876 258.196L119.688 253.936L121.488 258.196L123.948 252.4H116.208V252.04H124.488L121.488 259.12L119.688 254.86L117.876 259.12L114.876 252.04H115.26ZM130.499 258.292C130.059 258.844 129.339 259.12 128.339 259.12C127.339 259.12 126.623 258.836 126.191 258.268C125.759 257.7 125.543 256.784 125.543 255.52C125.543 254.256 125.759 253.34 126.191 252.772C126.623 252.204 127.339 251.92 128.339 251.92C129.499 251.92 130.287 252.3 130.703 253.06L127.763 255.52H127.199L130.235 252.988C129.883 252.516 129.251 252.28 128.339 252.28C127.939 252.28 127.603 252.324 127.331 252.412C127.059 252.492 126.807 252.648 126.575 252.88C126.351 253.104 126.183 253.436 126.071 253.876C125.959 254.308 125.903 254.856 125.903 255.52C125.903 256.184 125.959 256.736 126.071 257.176C126.183 257.608 126.351 257.94 126.575 258.172C126.807 258.396 127.059 258.552 127.331 258.64C127.603 258.72 127.939 258.76 128.339 258.76C129.251 258.76 129.883 258.524 130.235 258.052L130.499 258.292ZM133.053 258.64H136.965L134.505 252.844L131.889 259H131.505L134.505 251.92L137.505 259H133.053V258.64ZM141.802 255.508L143.434 259H143.038L141.358 255.4C141.374 255.392 141.442 255.36 141.562 255.304C141.69 255.24 141.778 255.196 141.826 255.172C141.874 255.14 141.954 255.088 142.066 255.016C142.178 254.944 142.262 254.876 142.318 254.812C142.374 254.74 142.434 254.66 142.498 254.572C142.57 254.476 142.622 254.372 142.654 254.26C142.686 254.14 142.702 254.012 142.702 253.876C142.702 253.372 142.462 253 141.982 252.76C141.502 252.52 140.906 252.4 140.194 252.4H139.234V259H138.874V252.04H140.194C141.138 252.04 141.85 252.204 142.33 252.532C142.818 252.86 143.062 253.308 143.062 253.876C143.062 254.244 142.938 254.572 142.69 254.86C142.442 255.14 142.146 255.356 141.802 255.508ZM145.482 252.04H150.126L147.306 258.7V261.4H146.946V258.7L144.126 252.04H144.51L147.126 258.196L149.586 252.4H145.482V252.04Z" fill="black"/>
<path d="M84.8051 285.32L86.4011 283.988C86.0491 283.516 85.4171 283.28 84.5051 283.28C84.1051 283.28 83.7691 283.324 83.4971 283.412C83.2251 283.492 82.9731 283.648 82.7411 283.88C82.5171 284.104 82.3491 284.436 82.2371 284.876C82.1251 285.308 82.0691 285.856 82.0691 286.52C82.0691 287.184 82.1251 287.736 82.2371 288.176C82.3491 288.608 82.5171 288.94 82.7411 289.172C82.9731 289.396 83.2251 289.552 83.4971 289.64C83.7691 289.72 84.1051 289.76 84.5051 289.76C85.4091 289.76 86.0371 289.528 86.3891 289.064V286.94H86.7491V290.108C86.7491 291.636 86.0491 292.4 84.6491 292.4H83.2451V292.04H84.6491C85.2491 292.04 85.6891 291.88 85.9691 291.56C86.2491 291.248 86.3891 290.648 86.3891 289.76V289.58C85.9571 289.94 85.3291 290.12 84.5051 290.12C83.5051 290.12 82.7891 289.836 82.3571 289.268C81.9251 288.7 81.7091 287.784 81.7091 286.52C81.7091 285.256 81.9251 284.34 82.3571 283.772C82.7891 283.204 83.5051 282.92 84.5051 282.92C85.6651 282.92 86.4531 283.3 86.8691 284.06L85.3691 285.32H84.8051ZM92.8609 289.64V290H88.8529V283.04H89.2129V289.64H92.8609ZM97.7475 283.412C97.4755 283.324 97.1395 283.28 96.7395 283.28C96.3395 283.28 96.0035 283.324 95.7315 283.412C95.4595 283.492 95.2075 283.648 94.9755 283.88C94.7515 284.104 94.5835 284.436 94.4715 284.876C94.3595 285.308 94.3035 285.856 94.3035 286.52C94.3035 287.184 94.3595 287.736 94.4715 288.176C94.5835 288.608 94.7515 288.94 94.9755 289.172C95.2075 289.396 95.4595 289.552 95.7315 289.64C96.0035 289.72 96.3395 289.76 96.7395 289.76C97.1395 289.76 97.4755 289.72 97.7475 289.64C98.0195 289.552 98.2675 289.396 98.4915 289.172C98.7235 288.94 98.8955 288.608 99.0075 288.176C99.1195 287.736 99.1755 287.184 99.1755 286.52C99.1755 285.856 99.1195 285.308 99.0075 284.876C98.8955 284.436 98.7235 284.104 98.4915 283.88C98.2675 283.648 98.0195 283.492 97.7475 283.412ZM98.8875 289.268C98.4555 289.836 97.7395 290.12 96.7395 290.12C95.7395 290.12 95.0235 289.836 94.5915 289.268C94.1595 288.7 93.9435 287.784 93.9435 286.52C93.9435 285.256 94.1595 284.34 94.5915 283.772C95.0235 283.204 95.7395 282.92 96.7395 282.92C97.7395 282.92 98.4555 283.204 98.8875 283.772C99.3195 284.34 99.5355 285.256 99.5355 286.52C99.5355 287.784 99.3195 288.7 98.8875 289.268ZM105.025 283.412C104.753 283.324 104.417 283.28 104.017 283.28C103.617 283.28 103.281 283.324 103.009 283.412C102.737 283.492 102.485 283.648 102.253 283.88C102.029 284.104 101.861 284.436 101.749 284.876C101.637 285.308 101.581 285.856 101.581 286.52C101.581 287.184 101.637 287.736 101.749 288.176C101.861 288.608 102.029 288.94 102.253 289.172C102.485 289.396 102.737 289.552 103.009 289.64C103.281 289.72 103.617 289.76 104.017 289.76C104.417 289.76 104.753 289.72 105.025 289.64C105.297 289.552 105.545 289.396 105.769 289.172C106.001 288.94 106.173 288.608 106.285 288.176C106.397 287.736 106.453 287.184 106.453 286.52C106.453 285.856 106.397 285.308 106.285 284.876C106.173 284.436 106.001 284.104 105.769 283.88C105.545 283.648 105.297 283.492 105.025 283.412ZM106.165 289.268C105.733 289.836 105.017 290.12 104.017 290.12C103.017 290.12 102.301 289.836 101.869 289.268C101.437 288.7 101.221 287.784 101.221 286.52C101.221 285.256 101.437 284.34 101.869 283.772C102.301 283.204 103.017 282.92 104.017 282.92C105.017 282.92 105.733 283.204 106.165 283.772C106.597 284.34 106.813 285.256 106.813 286.52C106.813 287.784 106.597 288.7 106.165 289.268ZM109.926 289.64H114.558V283.544L111.858 286.244L109.158 283.544V290L108.798 289.988V283.04H109.158L111.858 285.74L114.558 283.04H114.918V290L109.926 289.988V289.64ZM117.621 283.04H122.265L119.445 289.7V292.4H119.085V289.7L116.265 283.04H116.649L119.265 289.196L121.725 283.4H117.621V283.04ZM123.467 287.18V286.82H125.843V287.18H123.467ZM129.818 282.896C130.81 282.896 131.514 283.116 131.93 283.556L131.69 283.82C131.306 283.444 130.698 283.256 129.866 283.256C128.618 283.256 127.994 283.752 127.994 284.744C127.994 285.128 128.146 285.436 128.45 285.668C128.754 285.892 129.122 286.064 129.554 286.184C129.994 286.304 130.43 286.432 130.862 286.568C131.302 286.696 131.674 286.908 131.978 287.204C132.282 287.492 132.434 287.872 132.434 288.344C132.434 288.896 132.206 289.336 131.75 289.664C131.294 289.992 130.634 290.156 129.77 290.156C129.346 290.156 128.926 290.1 128.51 289.988C128.102 289.876 127.798 289.712 127.598 289.496L127.838 289.232C128.246 289.608 128.874 289.796 129.722 289.796C130.498 289.796 131.082 289.652 131.474 289.364C131.874 289.076 132.074 288.74 132.074 288.356C132.074 287.956 131.922 287.632 131.618 287.384C131.314 287.136 130.942 286.952 130.502 286.832C130.07 286.704 129.634 286.576 129.194 286.448C128.762 286.312 128.394 286.104 128.09 285.824C127.786 285.544 127.634 285.176 127.634 284.72C127.634 284.104 127.838 283.648 128.246 283.352C128.662 283.048 129.186 282.896 129.818 282.896ZM134.817 289.64H138.729L136.269 283.844L133.653 290H133.269L136.269 282.92L139.269 290H134.817V289.64ZM141.55 290H140.638V283.04H141.55C142.734 283.04 143.678 283.352 144.382 283.976C145.086 284.6 145.438 285.448 145.438 286.52C145.438 287.592 145.086 288.44 144.382 289.064C143.678 289.688 142.734 290 141.55 290ZM141.55 289.64C142.63 289.64 143.486 289.364 144.118 288.812C144.758 288.26 145.078 287.496 145.078 286.52C145.078 285.544 144.758 284.78 144.118 284.228C143.486 283.676 142.63 283.4 141.55 283.4H140.998V289.64H141.55Z" fill="black"/>
<path d="M254.577 258.64H257.889L256.437 254.656L257.109 254.272C257.661 253.968 257.937 253.484 257.937 252.82C257.937 251.58 256.993 250.96 255.105 250.96H254.001V259H253.641V250.6H255.105C256.161 250.6 256.957 250.796 257.493 251.188C258.029 251.572 258.297 252.116 258.297 252.82C258.297 253.62 257.961 254.208 257.289 254.584L256.881 254.812L258.405 259H254.577V258.64ZM264.847 258.292C264.407 258.844 263.687 259.12 262.687 259.12C261.687 259.12 260.971 258.836 260.539 258.268C260.107 257.7 259.891 256.784 259.891 255.52C259.891 254.256 260.107 253.34 260.539 252.772C260.971 252.204 261.687 251.92 262.687 251.92C263.847 251.92 264.635 252.3 265.051 253.06L262.111 255.52H261.547L264.583 252.988C264.231 252.516 263.599 252.28 262.687 252.28C262.287 252.28 261.951 252.324 261.679 252.412C261.407 252.492 261.155 252.648 260.923 252.88C260.699 253.104 260.531 253.436 260.419 253.876C260.307 254.308 260.251 254.856 260.251 255.52C260.251 256.184 260.307 256.736 260.419 257.176C260.531 257.608 260.699 257.94 260.923 258.172C261.155 258.396 261.407 258.552 261.679 258.64C261.951 258.72 262.287 258.76 262.687 258.76C263.599 258.76 264.231 258.524 264.583 258.052L264.847 258.292ZM270.773 258.64V259H266.765V252.04H267.125V258.64H270.773ZM272.792 258.64H276.704L274.244 252.844L271.628 259H271.244L274.244 251.92L277.244 259H272.792V258.64ZM280.437 255.244L282.597 259H282.177L280.221 255.616L278.265 259H277.845L280.005 255.244L278.157 252.04H278.577L280.221 254.884L281.865 252.04H282.285L280.437 255.244ZM288.765 258.292C288.325 258.844 287.605 259.12 286.605 259.12C285.605 259.12 284.889 258.836 284.457 258.268C284.025 257.7 283.809 256.784 283.809 255.52C283.809 254.256 284.025 253.34 284.457 252.772C284.889 252.204 285.605 251.92 286.605 251.92C287.765 251.92 288.553 252.3 288.969 253.06L286.029 255.52H285.465L288.501 252.988C288.149 252.516 287.517 252.28 286.605 252.28C286.205 252.28 285.869 252.324 285.597 252.412C285.325 252.492 285.073 252.648 284.841 252.88C284.617 253.104 284.449 253.436 284.337 253.876C284.225 254.308 284.169 254.856 284.169 255.52C284.169 256.184 284.225 256.736 284.337 257.176C284.449 257.608 284.617 257.94 284.841 258.172C285.073 258.396 285.325 258.552 285.597 258.64C285.869 258.72 286.205 258.76 286.605 258.76C287.517 258.76 288.149 258.524 288.501 258.052L288.765 258.292ZM291.595 259H290.683V252.04H291.595C292.779 252.04 293.723 252.352 294.427 252.976C295.131 253.6 295.483 254.448 295.483 255.52C295.483 256.592 295.131 257.44 294.427 258.064C293.723 258.688 292.779 259 291.595 259ZM291.595 258.64C292.675 258.64 293.531 258.364 294.163 257.812C294.803 257.26 295.123 256.496 295.123 255.52C295.123 254.544 294.803 253.78 294.163 253.228C293.531 252.676 292.675 252.4 291.595 252.4H291.043V258.64H291.595ZM297.172 256.18V255.82H299.548V256.18H297.172ZM252.043 272.268C251.611 271.7 251.395 270.784 251.395 269.52C251.395 268.256 251.611 267.34 252.043 266.772C252.475 266.204 253.191 265.92 254.191 265.92C255.191 265.92 255.911 266.196 256.351 266.748L256.087 266.988C255.735 266.516 255.103 266.28 254.191 266.28C253.791 266.28 253.455 266.324 253.183 266.412C252.911 266.492 252.659 266.648 252.427 266.88C252.203 267.104 252.035 267.436 251.923 267.876C251.811 268.308 251.755 268.856 251.755 269.52C251.755 270.184 251.811 270.736 251.923 271.176C252.035 271.608 252.203 271.94 252.427 272.172C252.659 272.396 252.911 272.552 253.183 272.64C253.455 272.72 253.791 272.76 254.191 272.76C255.103 272.76 255.735 272.524 256.087 272.052L256.351 272.292C255.911 272.844 255.191 273.12 254.191 273.12C253.191 273.12 252.475 272.836 252.043 272.268ZM258.776 272.64H262.688L260.228 266.844L257.612 273H257.228L260.228 265.92L263.228 273H258.776V272.64ZM267.525 269.508L269.157 273H268.761L267.081 269.4C267.097 269.392 267.165 269.36 267.285 269.304C267.413 269.24 267.501 269.196 267.549 269.172C267.597 269.14 267.677 269.088 267.789 269.016C267.901 268.944 267.985 268.876 268.041 268.812C268.097 268.74 268.157 268.66 268.221 268.572C268.293 268.476 268.345 268.372 268.377 268.26C268.409 268.14 268.425 268.012 268.425 267.876C268.425 267.372 268.185 267 267.705 266.76C267.225 266.52 266.629 266.4 265.917 266.4H264.957V273H264.597V266.04H265.917C266.861 266.04 267.573 266.204 268.053 266.532C268.541 266.86 268.785 267.308 268.785 267.876C268.785 268.244 268.661 268.572 268.413 268.86C268.165 269.14 267.869 269.356 267.525 269.508ZM275.441 272.292C275.001 272.844 274.281 273.12 273.281 273.12C272.281 273.12 271.565 272.836 271.133 272.268C270.701 271.7 270.485 270.784 270.485 269.52C270.485 268.256 270.701 267.34 271.133 266.772C271.565 266.204 272.281 265.92 273.281 265.92C274.441 265.92 275.229 266.3 275.645 267.06L272.705 269.52H272.141L275.177 266.988C274.825 266.516 274.193 266.28 273.281 266.28C272.881 266.28 272.545 266.324 272.273 266.412C272.001 266.492 271.749 266.648 271.517 266.88C271.293 267.104 271.125 267.436 271.013 267.876C270.901 268.308 270.845 268.856 270.845 269.52C270.845 270.184 270.901 270.736 271.013 271.176C271.125 271.608 271.293 271.94 271.517 272.172C271.749 272.396 272.001 272.552 272.273 272.64C272.545 272.72 272.881 272.76 273.281 272.76C274.193 272.76 274.825 272.524 275.177 272.052L275.441 272.292ZM277.239 273V269.52C277.239 268.256 277.455 267.34 277.887 266.772C278.327 266.204 279.043 265.92 280.035 265.92C281.195 265.92 281.983 266.3 282.399 267.06L279.891 269.16H282.447V269.52H278.895L281.931 266.988C281.579 266.516 280.947 266.28 280.035 266.28C279.635 266.28 279.299 266.324 279.027 266.412C278.755 266.492 278.503 266.648 278.271 266.88C278.047 267.104 277.879 267.436 277.767 267.876C277.655 268.308 277.599 268.856 277.599 269.52V273H277.239ZM287.177 269.508L288.809 273H288.413L286.733 269.4C286.749 269.392 286.817 269.36 286.937 269.304C287.065 269.24 287.153 269.196 287.201 269.172C287.249 269.14 287.329 269.088 287.441 269.016C287.553 268.944 287.637 268.876 287.693 268.812C287.749 268.74 287.809 268.66 287.873 268.572C287.945 268.476 287.997 268.372 288.029 268.26C288.061 268.14 288.077 268.012 288.077 267.876C288.077 267.372 287.837 267 287.357 266.76C286.877 266.52 286.281 266.4 285.569 266.4H284.609V273H284.249V266.04H285.569C286.513 266.04 287.225 266.204 287.705 266.532C288.193 266.86 288.437 267.308 288.437 267.876C288.437 268.244 288.313 268.572 288.065 268.86C287.817 269.14 287.521 269.356 287.177 269.508ZM295.093 272.292C294.653 272.844 293.933 273.12 292.933 273.12C291.933 273.12 291.217 272.836 290.785 272.268C290.353 271.7 290.137 270.784 290.137 269.52C290.137 268.256 290.353 267.34 290.785 266.772C291.217 266.204 291.933 265.92 292.933 265.92C294.093 265.92 294.881 266.3 295.297 267.06L292.357 269.52H291.793L294.829 266.988C294.477 266.516 293.845 266.28 292.933 266.28C292.533 266.28 292.197 266.324 291.925 266.412C291.653 266.492 291.401 266.648 291.169 266.88C290.945 267.104 290.777 267.436 290.665 267.876C290.553 268.308 290.497 268.856 290.497 269.52C290.497 270.184 290.553 270.736 290.665 271.176C290.777 271.608 290.945 271.94 291.169 272.172C291.401 272.396 291.653 272.552 291.925 272.64C292.197 272.72 292.533 272.76 292.933 272.76C293.845 272.76 294.477 272.524 294.829 272.052L295.093 272.292ZM301.667 272.292C301.227 272.844 300.507 273.12 299.507 273.12C298.507 273.12 297.791 272.836 297.359 272.268C296.927 271.7 296.711 270.784 296.711 269.52C296.711 268.256 296.927 267.34 297.359 266.772C297.791 266.204 298.507 265.92 299.507 265.92C300.667 265.92 301.455 266.3 301.871 267.06L298.931 269.52H298.367L301.403 266.988C301.051 266.516 300.419 266.28 299.507 266.28C299.107 266.28 298.771 266.324 298.499 266.412C298.227 266.492 297.975 266.648 297.743 266.88C297.519 267.104 297.351 267.436 297.239 267.876C297.127 268.308 297.071 268.856 297.071 269.52C297.071 270.184 297.127 270.736 297.239 271.176C297.351 271.608 297.519 271.94 297.743 272.172C297.975 272.396 298.227 272.552 298.499 272.64C298.771 272.72 299.107 272.76 299.507 272.76C300.419 272.76 301.051 272.524 301.403 272.052L301.667 272.292Z" fill="black"/>
<path d="M242.943 289.268C242.511 288.7 242.295 287.784 242.295 286.52C242.295 285.256 242.511 284.34 242.943 283.772C243.375 283.204 244.091 282.92 245.091 282.92C246.091 282.92 246.811 283.196 247.251 283.748L246.987 283.988C246.635 283.516 246.003 283.28 245.091 283.28C244.691 283.28 244.355 283.324 244.083 283.412C243.811 283.492 243.559 283.648 243.327 283.88C243.103 284.104 242.935 284.436 242.823 284.876C242.711 285.308 242.655 285.856 242.655 286.52C242.655 287.184 242.711 287.736 242.823 288.176C242.935 288.608 243.103 288.94 243.327 289.172C243.559 289.396 243.811 289.552 244.083 289.64C244.355 289.72 244.691 289.76 245.091 289.76C246.003 289.76 246.635 289.524 246.987 289.052L247.251 289.292C246.811 289.844 246.091 290.12 245.091 290.12C244.091 290.12 243.375 289.836 242.943 289.268ZM249.676 289.64H253.588L251.128 283.844L248.512 290H248.128L251.128 282.92L254.128 290H249.676V289.64ZM259.505 289.64V290H255.497V283.04H255.857V289.64H259.505ZM262.016 289.64H266.648V283.544L263.948 286.244L261.248 283.544V290L260.888 289.988V283.04H261.248L263.948 285.74L266.648 283.04H267.008V290L262.016 289.988V289.64ZM269.146 287.18V286.82H271.522V287.18H269.146ZM275.497 282.896C276.489 282.896 277.193 283.116 277.609 283.556L277.369 283.82C276.985 283.444 276.377 283.256 275.545 283.256C274.297 283.256 273.673 283.752 273.673 284.744C273.673 285.128 273.825 285.436 274.129 285.668C274.433 285.892 274.801 286.064 275.233 286.184C275.673 286.304 276.109 286.432 276.541 286.568C276.981 286.696 277.353 286.908 277.657 287.204C277.961 287.492 278.113 287.872 278.113 288.344C278.113 288.896 277.885 289.336 277.429 289.664C276.973 289.992 276.313 290.156 275.449 290.156C275.025 290.156 274.605 290.1 274.189 289.988C273.781 289.876 273.477 289.712 273.277 289.496L273.517 289.232C273.925 289.608 274.553 289.796 275.401 289.796C276.177 289.796 276.761 289.652 277.153 289.364C277.553 289.076 277.753 288.74 277.753 288.356C277.753 287.956 277.601 287.632 277.297 287.384C276.993 287.136 276.621 286.952 276.181 286.832C275.749 286.704 275.313 286.576 274.873 286.448C274.441 286.312 274.073 286.104 273.769 285.824C273.465 285.544 273.313 285.176 273.313 284.72C273.313 284.104 273.517 283.648 273.925 283.352C274.341 283.048 274.865 282.896 275.497 282.896ZM284.517 289.292C284.077 289.844 283.357 290.12 282.357 290.12C281.357 290.12 280.641 289.836 280.209 289.268C279.777 288.7 279.561 287.784 279.561 286.52C279.561 285.256 279.777 284.34 280.209 283.772C280.641 283.204 281.357 282.92 282.357 282.92C283.517 282.92 284.305 283.3 284.721 284.06L281.781 286.52H281.217L284.253 283.988C283.901 283.516 283.269 283.28 282.357 283.28C281.957 283.28 281.621 283.324 281.349 283.412C281.077 283.492 280.825 283.648 280.593 283.88C280.369 284.104 280.201 284.436 280.089 284.876C279.977 285.308 279.921 285.856 279.921 286.52C279.921 287.184 279.977 287.736 280.089 288.176C280.201 288.608 280.369 288.94 280.593 289.172C280.825 289.396 281.077 289.552 281.349 289.64C281.621 289.72 281.957 289.76 282.357 289.76C283.269 289.76 283.901 289.524 284.253 289.052L284.517 289.292ZM289.363 286.508L290.995 290H290.599L288.919 286.4C288.935 286.392 289.003 286.36 289.123 286.304C289.251 286.24 289.339 286.196 289.387 286.172C289.435 286.14 289.515 286.088 289.627 286.016C289.739 285.944 289.823 285.876 289.879 285.812C289.935 285.74 289.995 285.66 290.059 285.572C290.131 285.476 290.183 285.372 290.215 285.26C290.247 285.14 290.263 285.012 290.263 284.876C290.263 284.372 290.023 284 289.543 283.76C289.063 283.52 288.467 283.4 287.755 283.4H286.795V290H286.435V283.04H287.755C288.699 283.04 289.411 283.204 289.891 283.532C290.379 283.86 290.623 284.308 290.623 284.876C290.623 285.244 290.499 285.572 290.251 285.86C290.003 286.14 289.707 286.356 289.363 286.508ZM297.278 289.292C296.838 289.844 296.118 290.12 295.118 290.12C294.118 290.12 293.402 289.836 292.97 289.268C292.538 288.7 292.322 287.784 292.322 286.52C292.322 285.256 292.538 284.34 292.97 283.772C293.402 283.204 294.118 282.92 295.118 282.92C296.278 282.92 297.066 283.3 297.482 284.06L294.542 286.52H293.978L297.014 283.988C296.662 283.516 296.03 283.28 295.118 283.28C294.718 283.28 294.382 283.324 294.11 283.412C293.838 283.492 293.586 283.648 293.354 283.88C293.13 284.104 292.962 284.436 292.85 284.876C292.738 285.308 292.682 285.856 292.682 286.52C292.682 287.184 292.738 287.736 292.85 288.176C292.962 288.608 293.13 288.94 293.354 289.172C293.586 289.396 293.838 289.552 294.11 289.64C294.382 289.72 294.718 289.76 295.118 289.76C296.03 289.76 296.662 289.524 297.014 289.052L297.278 289.292ZM299.197 290V283.04H299.557L303.469 289.34V283.04H303.829V290H303.469L299.557 283.688V290H299.197ZM310.767 289.292C310.327 289.844 309.607 290.12 308.607 290.12C307.607 290.12 306.891 289.836 306.459 289.268C306.027 288.7 305.811 287.784 305.811 286.52C305.811 285.256 306.027 284.34 306.459 283.772C306.891 283.204 307.607 282.92 308.607 282.92C309.767 282.92 310.555 283.3 310.971 284.06L308.031 286.52H307.467L310.503 283.988C310.151 283.516 309.519 283.28 308.607 283.28C308.207 283.28 307.871 283.324 307.599 283.412C307.327 283.492 307.075 283.648 306.843 283.88C306.619 284.104 306.451 284.436 306.339 284.876C306.227 285.308 306.171 285.856 306.171 286.52C306.171 287.184 306.227 287.736 306.339 288.176C306.451 288.608 306.619 288.94 306.843 289.172C307.075 289.396 307.327 289.552 307.599 289.64C307.871 289.72 308.207 289.76 308.607 289.76C309.519 289.76 310.151 289.524 310.503 289.052L310.767 289.292Z" fill="black"/>
</svg>
